<?xml version="1.0" encoding="utf-8"?>
<!-- Generator: Adobe Illustrator 21.1.0, SVG Export Plug-In . SVG Version: 6.00 Build 0)  -->
<svg version="1.1" id="レイヤー_1" xmlns="http://www.w3.org/2000/svg" xmlns:xlink="http://www.w3.org/1999/xlink" x="0px"
	 y="0px" viewBox="0 0 418.1 410.5" style="enable-background:new 0 0 418.1 410.5;" xml:space="preserve">
<style type="text/css">
	.st0{fill:#40B9DC;}
</style>
<g>
	<path d="M6.1,21.7c0.5,0,1-0.3,1.8-1c0.7-0.5,1-0.9,3.8-3.5c3.1-2.9,4.1-3.6,5.4-3.6c1.2,0,1.2,0,7.4,4.6c7,5.1,9.8,6.9,12.2,7.8
		c1,0.4,2.3,2.8,2.3,4.3c0,0.7-0.3,1-0.9,1c-1.2,0-3-1.4-13.1-10c-6.9-5.9-7.2-6.1-8-6.1c-0.9,0-1.8,0.8-3.8,3.6
		c-1.5,2-2.4,3.4-3.3,5.2c-0.3,0.7-0.8,1-1.4,1c-1.8,0-4.8-2.9-4.8-4.6c0-0.1,0-0.1,0.1-0.5C4.5,21.1,5.5,21.7,6.1,21.7z M35.1,9.7
		c0,2.6-2,4.6-4.6,4.6c-2.6,0-4.6-2-4.6-4.6c0-2.5,2-4.6,4.6-4.6C33,5.2,35.1,7.2,35.1,9.7z M27.3,9.7c0,1.8,1.5,3.2,3.2,3.2
		c1.8,0,3.2-1.4,3.2-3.2c0-1.8-1.4-3.2-3.2-3.2C28.7,6.6,27.3,8,27.3,9.7z"/>
	<path d="M47.8,18.7c1,0.8,1.8,1,4.1,1c0.5,0,0.5,0,5.1-0.1c1.6,0,14.9-0.3,16.3-0.3c3.8,0,4.7,0.1,5.4,0.4c0.4,0.2,0.6,0.5,0.6,0.8
		c0,0.5-0.4,1-1,1.1c-1.1,0.4-2.1,0.4-10,0.5c-3.9,0-13.5,0.3-14.9,0.4c-2,0.1-2.3,0.2-3,0.5c-0.2,0-0.5,0.1-0.6,0.1
		c-0.6,0-1.3-0.5-2-1.4c-0.9-1.1-1.6-2.8-1.6-3.8c0-0.6,0-0.7,0.3-1C47,18,47.2,18.3,47.8,18.7z"/>
	<path d="M88.7,15.8c3.5,0.7,5.9,1.5,7.3,2.5c1.1,0.7,1.6,1.5,1.6,2.8c0,1.1-0.5,2-1.2,2c-0.4,0-0.7-0.2-1.3-1
		c-2.1-2.7-4.1-4.3-6.7-5.7L88.7,15.8z M121,14.7c-0.9,1.5-3.3,4.2-6.2,7.1c-4.6,4.4-9.2,8-15.8,12.2c-2.2,1.5-2.7,1.8-3.2,2.3
		c-0.3,0.3-0.6,0.4-1,0.4c-0.8,0-1.8-0.8-3-2.5c-0.8-1.1-1.3-2.4-1.3-3.2c0-0.4,0.1-0.7,0.4-1c0.8,1.6,2,2.6,3.1,2.6
		c0.9,0,3.7-1.4,8-4.1c7.7-4.7,13.9-9.5,18.5-14.2L121,14.7z M93.3,8.4c6.7,1.6,8.8,2.9,8.8,5.3c0,1.2-0.5,2.1-1.1,2.1
		c-0.5,0-0.5,0-2.3-2.2C97.1,11.6,95,10,93,8.9L93.3,8.4z M111.2,4.8c1.5,0.8,2.7,1.6,3.7,2.6c1.5,1.4,2.1,2.3,2.1,3.3
		s-0.6,1.8-1.3,1.8c-0.5,0-0.5,0-1.9-2.7c-0.7-1.5-2-3.3-3.2-4.4L111.2,4.8z M115.5,2.3c1.5,0.7,2.7,1.4,4,2.4
		c1.6,1.2,2.1,2,2.1,3.2c0,1-0.4,1.7-1,1.7c-0.4,0-0.6-0.2-1-0.8c-1.5-2.6-2.3-3.7-4.6-5.9L115.5,2.3z"/>
	<path d="M136.3,30.6c3.2,1.8,5.6,2.8,6.5,2.8c0.9,0,1.6-0.9,2.7-3.5c1.5-3.4,2.5-8,2.5-11.2c0-1.8-0.4-2.9-1.1-3.4
		c-0.4-0.3-1-0.4-1.9-0.4c-1.2,0-2,0.2-4.3,0.8c-0.6,1.5-0.6,1.5-2.4,5.7c-0.2,0.5-1,2.5-2.5,5.9c-1.7,3.9-3.1,6.9-3.7,8.1
		c-0.3,0.5-0.6,0.8-1,0.8c-0.8,0-1.2-1.1-1.2-2.9c0-1,0.1-1.4,1-2.3c1.9-2.3,3.7-5.7,7.7-14.5c-2.8,0.9-4.6,1.6-5.4,2.2
		c-0.6,0.4-0.9,0.5-1.2,0.5c-0.5,0-1.3-0.5-1.8-1.3c-0.8-1-1.4-2.4-1.4-3.2c0-0.2,0.1-0.5,0.3-0.9c0.9,1.7,1.6,2.3,3.2,2.3
		c0.9,0,4-0.6,7.1-1.5c1-2.4,1.7-5.4,1.7-6.9c0-1.3-0.8-2-3.2-2.8c0.5-0.4,0.8-0.5,1.2-0.5c0.6,0,1.7,0.2,2.8,0.5
		c1.9,0.5,2.9,1.3,2.9,2.2c0,0.3-0.1,0.5-0.6,1.2c-0.8,1.4-1.5,2.7-2.7,5.6c1.8-0.4,2.6-0.5,3.6-0.5c3.6,0,5.3,2.1,5.3,6.5
		c0,5.4-2.1,12.3-4.6,15c-1,1.1-2.7,1.9-4,1.9c-0.7,0-1-0.3-1.1-1c-0.1-1.1-0.3-1.3-4.6-4.9L136.3,30.6z M154.8,13.8
		c3.3,1,5.8,2.6,7.7,5c1.6,2,2.4,4.1,2.4,5.9c0,1.5-0.6,2.3-1.7,2.3c-0.3,0-0.5,0-1-0.3c-0.7-0.4-0.9-0.5-1.7-0.5
		c-1.5,0-1.7,0-5.2,0.4l-0.2-0.5c4.1-1.3,5.2-1.6,6.4-2.1c-0.5-4.1-3.3-7.9-7-9.6L154.8,13.8z M156.2,5.4c1.5,0.8,2.7,1.6,3.7,2.6
		c1.5,1.3,2.1,2.3,2.1,3.3s-0.6,1.8-1.3,1.8c-0.5,0-0.5,0-1.8-2.7c-0.8-1.5-2.1-3.3-3.2-4.4L156.2,5.4z M160.5,3
		c1.5,0.7,2.7,1.4,4,2.4c1.6,1.2,2.1,2,2.1,3.2c0,1-0.4,1.7-1,1.7c-0.4,0-0.6-0.2-1-0.8c-1.5-2.6-2.3-3.7-4.6-6L160.5,3z"/>
	<path d="M192.8,35.3c0,0.8,0,0.9,0.2,1c0.3,0.2,1.5,0.3,4.4,0.3c0.1,0,0.4,0,0.6,0c1.1,0,2,0,2.4,0c0.1,0,0.3,0,0.3,0
		c1.5,0,2.1-0.3,2.4-1.1c0.3-0.7,0.7-2.3,2-7.6l0.5,0.1l-0.3,6.8c0,0.2,0,0.4,0,0.4c0,0.6,0.1,0.8,0.6,1c0.8,0.3,1,0.5,1,1
		c0,0.6-0.6,1.2-1.6,1.4c-1,0.2-3.5,0.3-6.7,0.3c-0.1,0-0.5,0-0.7,0c-1.9,0-3.5,0-3.9,0c-3.3,0-4.2-0.6-4.2-2.8c0,0,0-0.1,0-0.1
		c0-0.7,0-1.3,0-1.7c0-1,0-1.8,0-2v-6.1h-4c-0.5,3.3-1.7,6.1-3.7,8.2c-2,2.2-4.8,3.8-8.6,4.8c-1.3,0.3-2.2,0.5-4.5,0.8l-0.2-0.8
		c3.3-0.8,4.9-1.4,7-2.7c4.1-2.5,6.5-6,7-10.4h-3.3v1.3c0,0.7-0.3,0.8-2.2,0.8c-0.9,0-1-0.1-1-0.6c0.2-5.8,0.3-9.2,0.3-14.8
		c0-6.1,0-8.3-0.3-10.7c1.6,0.8,2,1.1,3.5,2.2h16.5c0.8-0.9,1-1.2,1.8-1.9c1,0.8,1.3,1,2.3,1.9c0.4,0.3,0.5,0.5,0.5,0.7
		c0,0.3-0.2,0.5-1.3,1.1v4.6c0,7.5,0,13.6,0.2,16.7c0,0.6-0.4,0.8-2.2,0.8c-0.8,0-0.9-0.1-1-0.5v-1.5h-3.9V35.3z M196.8,5.4h-17.2
		v5.9h17.2V5.4z M179.6,12.2v5.9h17.2v-5.9H179.6z M179.6,19v6.2h17.2V19H179.6z"/>
	<path d="M226.3,34c3.8-1,6.6-2,9.2-3.5c4.9-2.8,7.7-6.9,7.7-11.2c0-4.2-3.1-7-7.7-7c-4.9,0-11.3,2.7-16.8,7
		c-0.7,0.5-1.1,0.7-1.6,0.7c-2,0-5-2.9-5-4.8c0-0.3,0.1-0.5,0.3-1c0.4,0.9,0.7,1.2,1.2,1.5c0.6,0.5,1.1,0.7,1.7,0.7
		c1.1,0,2.7-0.5,5.1-1.5c6.6-2.9,11-4,15.3-4c6.4,0,10.7,3.7,10.7,9.2c0,5.2-3.5,9.7-9.6,12.2c-3.2,1.3-6.2,2-10.3,2.4L226.3,34z"/>
	<path d="M264,16.3c-2.9,1-4.3,1.5-5.4,2.2c-0.6,0.4-0.9,0.5-1.2,0.5c-0.5,0-1.3-0.5-1.8-1.3c-0.8-1-1.4-2.4-1.4-3.2
		c0-0.2,0.1-0.5,0.3-0.9c0.9,1.8,1.6,2.3,3.2,2.3c0.9,0,3.8-0.6,7.1-1.5c1-2.4,1.7-5.4,1.7-6.9c0-1.3-0.8-2-3.2-2.8
		c0.5-0.3,0.8-0.4,1.3-0.4c0.6,0,1.7,0.2,2.8,0.5c1.9,0.5,2.9,1.3,2.9,2.2c0,0.3-0.1,0.5-0.6,1.2c-0.6,0.9-1.5,2.8-2.7,5.7
		c1.8-0.4,2.6-0.5,3.6-0.5c3.6,0,5.3,2.1,5.3,6.5c0,5.4-2.1,12.3-4.6,15c-1,1.1-2.7,1.9-4,1.9c-0.7,0-1-0.3-1.1-1
		c-0.1-1.2-0.2-1.3-4.6-4.9l0.4-0.5c3.2,1.8,5.6,2.9,6.5,2.9c1,0,1.6-0.9,2.7-3.5c1.5-3.4,2.5-8.1,2.5-11.2c0-2.8-0.8-3.8-3-3.8
		c-1.3,0-2,0.2-4.4,0.9c-0.6,1.4-0.6,1.4-2.4,5.7c-0.2,0.4-1,2.4-2.5,5.9c-1.7,3.9-3.1,6.9-3.7,8.1c-0.3,0.5-0.6,0.8-1,0.8
		c-0.8,0-1.2-1.1-1.2-2.9c0-1.1,0.1-1.4,1-2.3c0.8-0.9,1.9-2.7,3.1-4.9c1.6-3.1,1.6-3.1,3.3-6.9L264,16.3z M280.3,13.6
		c3.3,1,5.8,2.6,7.7,5c1.6,2,2.4,4.1,2.4,5.9c0,1.4-0.6,2.3-1.7,2.3c-0.3,0-0.5,0-1-0.3c-0.7-0.4-0.9-0.4-1.7-0.4
		c-1.5,0-1.7,0-5.2,0.4l-0.2-0.6c4.2-1.3,5.1-1.6,6.4-2.1c-0.2-1.4-0.5-2.6-1.3-4c-1.3-2.6-3-4.1-5.7-5.6L280.3,13.6z"/>
	<path d="M308.4,3c1.4,2,2.5,2.7,5.3,3.7c0.8,0.3,2,0.6,3,0.8c0.7,0.1,1.2,0.4,1.7,1c0.6,0.7,0.9,1.3,0.9,1.8s-0.4,0.9-1,0.9
		c-0.1,0-0.3,0-0.9-0.1c-0.7-0.1-1.1-0.1-2-0.1c-2,0-5.3,0.5-8,1.2c-1.2,0.3-1.6,0.5-1.9,0.8c-0.3,0.3-0.5,0.7-0.5,1.1
		c0,0.3,0.1,0.7,0.3,1.2c0.3,0.7,0.3,0.9,0.3,1.3c0,0.2,0,0.6-0.1,1.3c-0.3,2.2-0.6,5.7-0.7,8.5c5.1-3.4,9.8-5.2,13.6-5.2
		c4.7,0,8,2.7,8,6.5c0,3.8-3,7.1-8.2,8.9c-2.8,1-5.6,1.5-9.5,1.6l-0.1-0.7c4.8-0.8,7.7-1.8,10.5-3.7c2.9-2,4.2-4.1,4.2-6.8
		c0-2.8-2-4.6-5.1-4.6c-3,0-6.7,1.7-10,4.6c-1.1,1-1.6,1.5-2.3,2.6c-0.4,0.6-0.7,0.8-1.2,0.8c-0.6,0-1.2-0.4-1.8-1.4
		c-0.5-0.9-0.9-1.6-0.9-2.1c0,0,0.1-0.4,0.1-0.7c0.2-0.7,0.3-1,0.5-2.5c0.1-0.8,0.3-2,0.5-3.5c0.6-3.3,0.8-4.6,0.8-5.5
		c0-1.5,0.1-1.8,0.7-2.4c0.6-0.6,1.8-1.2,4.3-1.9c3.6-1,3.6-1,4.9-1.6c-1.7-0.8-2.8-1.4-3.8-2.4c-0.9-0.8-1.4-1.6-2.1-3.3L308.4,3z"
		/>
	<path d="M339.8,10.5c2,1.9,3.2,2.4,5.3,2.4c1.1,0,2.2-0.2,3.8-0.5c1-2.7,1.5-4.5,1.5-5.9c0-1.4-0.7-2.2-2.7-3.2
		c0.5-0.3,0.7-0.3,1-0.3c0.8,0,2.1,0.4,3.3,1c1.4,0.7,2,1.2,2,1.8c0,0.3-0.1,0.6-0.4,1.1c-0.2,0.3-1,2-2.5,5.1
		c3.1-1.1,3.5-1.3,4.6-2.3c0.3-0.3,0.5-0.3,0.9-0.3c1.6,0,2.8,0.5,2.8,1.3c0,1.1-2.6,2.1-9.2,3.7c-0.4,0.8-1.1,2.6-2.2,5.1
		c-1.3,2.9-4.5,9.9-4.8,10.6c-0.6,1.1-1,1.5-1.5,1.5c-0.7,0-1.3-1.3-1.3-3c0-0.8,0.1-1.1,0.5-1.5c0.9-1,1.4-1.6,2-2.5
		c2-3.1,3.6-5.9,5.2-9.8c-0.9,0.1-1.3,0.2-2,0.2c-1.5,0-2.6-0.3-3.7-0.9c-1.3-0.7-2.2-1.7-3.1-3.1L339.8,10.5z M362,12.8
		c2.9,0.3,5.2,1,7.1,2.3c1.6,1,2.6,2.3,2.6,3.3c0,0.7-0.4,1.2-1.1,1.2c-0.3,0-0.6-0.1-1-0.3c-1.2-0.7-2-0.9-4.1-0.9
		c-3.3,0-4.4,0.9-4.4,3.8c0,1.1,0.2,2.9,0.8,7.2c2.6,0.8,4.7,1.8,5.9,2.7c1.1,0.9,1.7,2,1.7,3.3c0,0.8-0.3,1.4-0.8,1.4
		c-0.4,0-0.6-0.1-1.5-1.1c-1.5-1.6-2.9-2.6-5.1-3.7c0,0.3,0,0.6,0,0.8c0,1.7-0.3,2.6-1.2,3.6c-1.1,1.1-3.1,1.8-5.4,1.8
		c-3.8,0-6.4-1.8-6.4-4.4c0-2.9,3.2-5,7.8-5c1,0,1.4,0,2.5,0.2c-0.1-3.3-0.1-3.6-0.1-4.1c0-3.4,0.3-4.7,1.5-6c0.8-0.9,2-1.5,4-2
		c0.6-0.2,0.7-0.2,2.3-0.5c-1.1-1.2-2.4-1.9-5.4-2.9L362,12.8z M359.7,31.1c-1.3-0.4-2.3-0.5-3.6-0.5c-3.6,0-5.7,1.2-5.7,3.2
		c0,1.5,1.6,2.5,4.2,2.5c3.4,0,5.1-1.4,5.1-4V31.1z"/>
	<path d="M395.3,20.2c-3.1,7-3.9,9.5-3.9,11.2c0,0.3,0,0.3,0.3,1.4c0,0.2,0.1,0.5,0.1,0.7c0,0.6-0.4,1-0.9,1c-1.2,0-3.3-1.6-4.6-3.6
		c-1.4-2-2.4-5-2.8-8.4c-0.3-1.8-0.3-2.9-0.3-7.4c0-3.9-0.3-4.9-2.1-7.2c0.1,0,0.2,0,0.4,0c0.7,0,1.9,0.8,3.1,2
		c1.3,1.2,1.9,2.3,1.9,3.3c0,0.3,0,0.6-0.1,1.1c-0.5,2.6-0.8,4.5-0.8,6.2c0,2.3,0.3,4.3,1,6.1c0.6,1.7,1.1,2.5,2.2,3.3
		c0.5-0.7,0.5-0.7,1.4-2.2c1.3-2.3,1.3-2.3,3.5-5.9c0.7-1.1,0.7-1.1,1.2-2L395.3,20.2z M404.2,12.6c5.3,1.2,9.4,6.7,9.4,12.5
		c0,2-0.8,3.3-2.1,3.3c-0.4,0-0.7-0.1-1.3-0.5c-0.5-0.4-1.3-0.5-3.1-0.5c-1,0-1.8,0-3.2,0.1l-0.1-0.6c3.4-0.9,5.3-1.5,5.6-1.6
		c0.8-0.3,1-0.5,1-1.3c0-1.5-0.6-4-1.3-5.5c-1.1-2.4-2.8-4.2-5.2-5.5L404.2,12.6z"/>
</g>
<g>
	<path d="M284.5,410.5c-10.9,0-19.4-6.4-29.2-13.8c-12.8-9.6-27.3-20.5-51.4-20.1c-21.2,0.4-28,8.4-35.1,16.9
		c-7,8.4-14.3,17-35.9,17c-40,0-47.6-94.7-49.8-165.9c-0.6-20.8,0.4-92,41.3-134.1c20.1-20.7,46.8-31.2,79.5-31.2
		c86,0,131.4,53.8,131.4,155.5c0,161.3-21.6,174.8-49.8,175.7C285.1,410.5,284.8,410.5,284.5,410.5z M203.8,82.1
		c-31.9,0-57.9,10.2-77.4,30.4c-10.1,10.5-43,50.9-40.5,132.1c1,32.1,2.9,69.2,9.1,101.4c7.9,41,20.6,61.7,37.9,61.7
		c20.2,0,26.8-7.8,33.7-16c7.2-8.6,14.7-17.5,37.2-17.9c25.1-0.5,40,10.8,53.2,20.7c9.7,7.3,18,13.6,28.3,13.2
		c12.1-0.4,23.7-2.6,32.3-24.5c9.9-25.2,14.7-73.7,14.7-148.3C332.4,134.9,287.9,82.1,203.8,82.1z"/>
	<polygon points="221.4,236.8 198,213.4 174.6,236.8 172.6,234.8 198,209.4 223.4,234.8 	"/>
	<path d="M120.3,295.7c-0.8,0-1.6,0-2.5-0.1c-9.5-1.1-18.7-8.3-21.7-13.1l2.4-1.5c2.2,3.5,10.4,10.8,19.6,11.8
		c5.3,0.6,9.9-1,13.7-4.8c12.4-12.4-1-34.2-6.7-43.5l2.4-1.5c6,9.9,20.2,33.1,6.2,47C130,293.7,125.5,295.7,120.3,295.7z"/>
	<path d="M284.7,293.8c-0.6,0-1.2,0-1.8-0.1c-3.9-0.5-6.8-2.4-8.5-5.8c-5.8-11.7,6.9-35.9,20.6-45.5l1.6,2.3
		c-12.6,8.8-24.9,31.5-19.7,41.9c1.2,2.5,3.3,3.9,6.3,4.2c7.9,0.9,19.7-5.9,25.2-12.6l2.2,1.8C304.9,287,293.5,293.8,284.7,293.8z"
		/>
	<rect x="138.4" y="163.2" width="40.7" height="2.8"/>
	<rect x="222.4" y="163.2" width="41.6" height="2.8"/>
	<path class="st0" d="M263.9,164.6c-7.4,9.8-15.6,46.8,0,45.9C279.5,209.7,272.2,172.7,263.9,164.6z"/>
</g>
</svg>
