<?xml version="1.0" encoding="utf-8"?>
<!-- Generator: Adobe Illustrator 21.1.0, SVG Export Plug-In . SVG Version: 6.00 Build 0)  -->
<svg version="1.1" id="レイヤー_1" xmlns="http://www.w3.org/2000/svg" xmlns:xlink="http://www.w3.org/1999/xlink" x="0px"
	 y="0px" viewBox="0 0 476.5 76.9" style="enable-background:new 0 0 476.5 76.9;" xml:space="preserve">
<style type="text/css">
	.st0{fill:#FFFFFF;}
</style>
<g>
	<path class="st0" d="M14.1,26.6L31.3,4.2h17.4L27.2,29.9l23.5,28.6H32.5L14.1,34.9v23.5H0V4.2h14.1V26.6z"/>
	<path class="st0" d="M54.9,7.3c0-1,0.2-2,0.6-2.8c0.4-0.9,0.9-1.7,1.6-2.3c0.7-0.7,1.5-1.2,2.3-1.6C60.3,0.2,61.3,0,62.3,0
		c1,0,2,0.2,2.8,0.6C66,1,66.8,1.5,67.5,2.2c0.7,0.7,1.2,1.5,1.6,2.3c0.4,0.9,0.6,1.8,0.6,2.8c0,1-0.2,2-0.6,2.8
		c-0.4,0.9-0.9,1.7-1.6,2.3c-0.7,0.7-1.5,1.2-2.3,1.6c-0.9,0.4-1.8,0.6-2.8,0.6c-1,0-2-0.2-2.8-0.6c-0.9-0.4-1.7-0.9-2.3-1.6
		c-0.7-0.7-1.2-1.5-1.6-2.3C55.1,9.3,54.9,8.4,54.9,7.3z M68.8,21.5v36.9h-13V21.5H68.8z"/>
	<path class="st0" d="M77.8,21.5h13v4.5c3.6-3.4,7.5-5.1,12-5.1c5.5,0,9.6,2.3,12.5,6.9c2.9-4.7,7.1-7,12.5-7c1.7,0,3.4,0.3,4.9,0.8
		c1.5,0.5,2.9,1.3,4,2.4c1.1,1.1,2,2.5,2.6,4.2c0.6,1.7,1,3.8,1,6.3v24h-13V40.2c0-1.9-0.1-3.4-0.4-4.6c-0.3-1.2-0.6-2.1-1.2-2.8
		c-0.5-0.7-1.1-1.1-1.8-1.4c-0.7-0.2-1.4-0.4-2.2-0.4c-4.2,0-6.3,3-6.3,9.1v18.2h-13V40.2c0-1.9-0.1-3.4-0.4-4.6
		c-0.2-1.2-0.6-2.2-1-2.9c-0.5-0.7-1-1.2-1.8-1.5c-0.7-0.3-1.6-0.4-2.5-0.4c-0.8,0-1.6,0.1-2.3,0.4c-0.7,0.2-1.4,0.7-1.9,1.4
		c-0.6,0.7-1,1.7-1.3,2.9c-0.3,1.2-0.5,2.8-0.5,4.8v18.2h-13V21.5z"/>
	<path class="st0" d="M156.7,4.2h12.3l-13.2,23.9h-8.4L156.7,4.2z"/>
	<path class="st0" d="M193.8,31c-2.4-1.2-4.8-1.9-7.1-1.9c-1.2,0-2.2,0.2-2.9,0.7c-0.7,0.5-1.1,1.1-1.1,1.9c0,0.4,0.1,0.8,0.2,1
		c0.1,0.3,0.4,0.5,0.8,0.8c0.4,0.2,1,0.5,1.8,0.6c0.8,0.2,1.8,0.4,3.1,0.7c3.6,0.7,6.3,2,8.1,3.9c1.8,1.8,2.7,4.2,2.7,7.1
		c0,2.2-0.4,4.1-1.3,5.8c-0.9,1.7-2.1,3.2-3.6,4.4c-1.5,1.2-3.4,2.1-5.5,2.7c-2.2,0.6-4.5,1-7.1,1c-5,0-9.9-1.4-14.8-4.2l4.8-9.2
		c3.6,2.5,7.1,3.7,10.4,3.7c1.2,0,2.2-0.3,3-0.8c0.8-0.5,1.2-1.2,1.2-2c0-0.5-0.1-0.9-0.2-1.2c-0.1-0.3-0.4-0.6-0.8-0.9
		c-0.4-0.3-0.9-0.5-1.7-0.7c-0.7-0.2-1.7-0.4-2.9-0.7c-4-0.8-6.9-2-8.5-3.6c-1.6-1.6-2.4-3.8-2.4-6.7c0-2.1,0.4-3.9,1.2-5.6
		c0.8-1.7,1.9-3.1,3.3-4.2s3.2-2,5.2-2.7c2-0.6,4.3-0.9,6.8-0.9c4.1,0,8,0.8,11.9,2.4L193.8,31z"/>
	<path class="st0" d="M229,39.7c0-2.7,0.6-5.3,1.7-7.7c1.1-2.4,2.6-4.4,4.6-6.2c2-1.8,4.3-3.1,7-4.1c2.7-1,5.7-1.5,8.9-1.5
		c3.2,0,6.1,0.5,8.8,1.5c2.7,1,5.1,2.4,7.1,4.1c2,1.8,3.5,3.8,4.6,6.3c1.1,2.4,1.7,5.1,1.7,8s-0.6,5.6-1.7,8
		c-1.1,2.4-2.7,4.5-4.6,6.3c-2,1.8-4.3,3.1-7.1,4.1c-2.8,1-5.7,1.4-9,1.4c-3.2,0-6.1-0.5-8.8-1.4c-2.7-1-5-2.3-6.9-4.1
		c-1.9-1.8-3.5-3.9-4.6-6.4C229.6,45.4,229,42.7,229,39.7z M242.8,39.8c0,1.2,0.2,2.4,0.7,3.4c0.5,1,1.1,1.9,1.8,2.7
		c0.7,0.8,1.6,1.4,2.7,1.8c1,0.4,2.1,0.6,3.3,0.6c1.2,0,2.2-0.2,3.3-0.6c1-0.4,1.9-1,2.7-1.8c0.7-0.8,1.3-1.7,1.8-2.7
		c0.5-1,0.7-2.1,0.7-3.3c0-1.2-0.2-2.2-0.7-3.3c-0.5-1-1.1-1.9-1.8-2.7c-0.7-0.8-1.6-1.4-2.7-1.8c-1-0.4-2.1-0.6-3.3-0.6
		c-1.2,0-2.2,0.2-3.3,0.6c-1,0.4-1.9,1-2.7,1.8c-0.7,0.8-1.3,1.7-1.8,2.7C243,37.6,242.8,38.7,242.8,39.8z"/>
	<path class="st0" d="M293.9,21.5v20.8c0,4.6,2.2,6.8,6.6,6.8c4.4,0,6.6-2.3,6.6-6.8V21.5h13v23.3c0,5-1.6,8.7-4.9,11.2
		c-3.3,2.5-8.2,3.7-14.7,3.7c-6.5,0-11.4-1.2-14.7-3.7c-3.3-2.5-4.9-6.2-4.9-11.2V21.5H293.9z"/>
	<path class="st0" d="M343.6,32.4v26.1h-13V32.4h-4.3V21.5h4.3V10.4h13v11.1h7.4v10.9H343.6z"/>
	<path class="st0" d="M368.9,76.9h-13V21.5h13v4.1c2.8-3.5,6.6-5.3,11.4-5.3c2.6,0,5.1,0.5,7.4,1.5c2.3,1,4.3,2.4,5.9,4.2
		c1.7,1.8,3,3.9,3.9,6.3c0.9,2.4,1.4,5,1.4,7.7c0,2.7-0.5,5.3-1.4,7.6c-0.9,2.4-2.2,4.4-3.9,6.2c-1.7,1.8-3.6,3.2-5.9,4.2
		c-2.3,1-4.7,1.5-7.3,1.5c-4.6,0-8.4-1.6-11.5-4.8V76.9z M385.3,40.1c0-1.2-0.2-2.2-0.6-3.3c-0.4-1-1-1.9-1.8-2.7
		c-0.8-0.8-1.7-1.4-2.7-1.8c-1-0.5-2.1-0.7-3.3-0.7c-1.2,0-2.2,0.2-3.2,0.6s-1.9,1-2.6,1.8c-0.7,0.8-1.3,1.7-1.8,2.7
		c-0.5,1-0.7,2.1-0.7,3.3c0,1.2,0.2,2.2,0.6,3.2c0.4,1,1,1.9,1.8,2.6c0.8,0.7,1.7,1.3,2.7,1.8c1,0.5,2.1,0.7,3.3,0.7
		c1.2,0,2.2-0.2,3.2-0.6c1-0.4,1.9-1,2.6-1.8c0.7-0.8,1.3-1.7,1.8-2.7C385.1,42.3,385.3,41.2,385.3,40.1z"/>
	<path class="st0" d="M419.4,21.5v20.8c0,4.6,2.2,6.8,6.6,6.8c4.4,0,6.6-2.3,6.6-6.8V21.5h13v23.3c0,5-1.6,8.7-4.9,11.2
		c-3.3,2.5-8.2,3.7-14.7,3.7c-6.5,0-11.4-1.2-14.7-3.7c-3.3-2.5-4.9-6.2-4.9-11.2V21.5H419.4z"/>
	<path class="st0" d="M469.1,32.4v26.1h-13V32.4h-4.3V21.5h4.3V10.4h13v11.1h7.4v10.9H469.1z"/>
</g>
</svg>
