<?xml version="1.0" encoding="utf-8"?>
<!-- Generator: Adobe Illustrator 21.1.0, SVG Export Plug-In . SVG Version: 6.00 Build 0)  -->
<svg version="1.1" id="レイヤー_1" xmlns="http://www.w3.org/2000/svg" xmlns:xlink="http://www.w3.org/1999/xlink" x="0px"
	 y="0px" viewBox="0 0 635 67.5" style="enable-background:new 0 0 635 67.5;" xml:space="preserve">
<style type="text/css">
	.st0{fill:#FFFFFF;}
</style>
<g>
	<path class="st0" d="M34.9,45.7L37.7,66L31,66.8l-2.8-20.5L0.6,49l-0.6-6l27.4-2.6l-2.4-17.1L1.7,25.4l-0.5-6l23-2.2L22.5,4
		l6.6-0.9L31,16.6l25.2-2.4l0.5,6l-24.9,2.4l2.4,17.1l26-2.4l0.6,6L34.9,45.7z"/>
	<path class="st0" d="M127.7,66c-1.3-2.7-2.7-5.5-4-8.2l-50.6,6.4c7.8-21,14.6-39.9,20.2-59.5l6.9,1.1c-5.3,17.5-11.7,35.4-17.5,51
		l38.1-4.8c-3.9-7.3-8-14.3-12.5-20.6l6.5-2.2c6.9,10.5,13.3,21.7,19.7,34.9L127.7,66z"/>
	<path class="st0" d="M204.8,65.7c-7.1-8.1-15.9-17.1-23.5-23.5c-8.1,9.1-17.7,16.9-28.5,23.5l-4.4-5.3
		C168,49.2,183,34.3,189.9,14.5h-35.3V8.2h43.6c-0.6-1.5-1.4-3-2.1-4.4l4.2-1.1c1.9,3.2,3.8,7.7,5,11.2l-4.4,1.1
		c-0.7-1.9-1.4-3.8-2.2-5.6c-3,10.4-7.3,19.5-13.2,27.7c8.2,7,17.9,16.5,24.7,24.3L204.8,65.7z M209.2,13.2c-1.6-4.2-3.2-8-5.2-11.2
		l4.3-1.2c1.9,3.4,3.8,7.1,5.3,11.2L209.2,13.2z"/>
	<path class="st0" d="M265.9,41.1l-5.9-3.4c7-6.8,12.9-13.5,18.4-23.2h-50.3V8.3h60.1C282.3,22.7,273.8,33.3,265.9,41.1z
		 M241.9,66.4l-6.6-3.1c9.4-10.5,14.8-22.8,17.2-39l6.9,0.9C256.7,41,251,55.3,241.9,66.4z"/>
	<path class="st0" d="M331.8,67.5l-5.6-4.5c15.8-11,24.3-23.8,27.7-42.4h-43.7v17.9h-6.6V14.3h25V3.1h6.6v11.2h26.7
		C358.5,40.3,347.9,54.9,331.8,67.5z"/>
	<path class="st0" d="M426.5,43.6c-12-4.5-24.4-8.6-36.3-12.1v35.4h-6.8V3.5h6.8v21.3c13.8,3.9,26.4,8,39.2,13L426.5,43.6z"/>
	<path class="st0" d="M493.1,15.7c-0.9,0-1.7-0.1-2.5-0.4c-6,24.5-19.4,39.5-37.7,50.6l-4.8-5.1c17.9-10.2,30.2-24.1,35.5-45.5
		h-47.3V8.8h49c-0.1-0.4-0.1-0.6-0.1-1c0-4.3,3.7-7.8,7.8-7.8c4.4,0,7.8,3.5,7.8,7.8C500.9,12.2,497.4,15.7,493.1,15.7z M493.1,3.7
		c-2.4,0-4.1,1.7-4.1,4.1c0,2.4,1.7,4.2,4.1,4.2c2.4,0,4.2-1.9,4.2-4.2C497.3,5.4,495.4,3.7,493.1,3.7z"/>
	<path class="st0" d="M519.6,40.7c-2.2-8.3-4.2-15.3-6.8-22.1l6-1.7c2.5,6.8,4.8,14,6.8,22.2L519.6,40.7z M537.8,37.8
		c-1.8-8.5-3.5-15-6.2-22.1l6.2-1.5c2.6,7.2,4.5,13.9,6.2,22.2L537.8,37.8z M539.9,66.8l-5.7-3.5c13-12.7,20.4-26.6,25.2-46.4
		l6.8,1.4C560.6,38.4,552.7,53.5,539.9,66.8z"/>
	<path class="st0" d="M632.2,43.6c-12-4.5-24.4-8.6-36.3-12.1v35.4h-6.8V3.5h6.8v21.3c13.8,3.9,26.4,8,39.2,13L632.2,43.6z"/>
</g>
</svg>
