<?xml version="1.0" encoding="utf-8"?>
<!-- Generator: Adobe Illustrator 21.1.0, SVG Export Plug-In . SVG Version: 6.00 Build 0)  -->
<svg version="1.1" id="_x32_" xmlns="http://www.w3.org/2000/svg" xmlns:xlink="http://www.w3.org/1999/xlink" x="0px" y="0px"
	 viewBox="0 0 512 512" style="enable-background:new 0 0 512 512;" xml:space="preserve">
<style type="text/css">
	.st0{fill:#FFFFFF;}
</style>
<g>
	<path class="st0" d="M449.8,62.2C408.4,20.8,353.9,0,299.6,0c-54.2,0-108.8,20.8-150.2,62.2s-62.3,96-62.2,150.1
		c0,37.9,10.4,75.8,30.5,109.4L15,424.5c-20,20-20,52.5,0,72.5s52.5,20,72.5,0l102.8-102.8c33.6,20.2,71.5,30.6,109.3,30.5
		c54.2,0,108.8-20.8,150.2-62.2S512,266.6,512,212.3C512.1,158.1,491.2,103.6,449.8,62.2z M391.8,304.5
		c-25.5,25.5-58.7,38.1-92.2,38.2c-33.5-0.1-66.6-12.7-92.2-38.2c-25.5-25.6-38.1-58.7-38.2-92.2c0.1-33.5,12.7-66.6,38.2-92.2
		C233,94.6,266.1,82,299.6,82c33.5,0.1,66.6,12.7,92.2,38.2c25.5,25.6,38.1,58.7,38.2,92.2C430,245.9,417.4,279,391.8,304.5z"/>
</g>
</svg>
